<?xml version="1.0" encoding="utf-8"?>
<!-- Generator: Adobe Illustrator 26.3.1, SVG Export Plug-In . SVG Version: 6.00 Build 0)  -->
<svg version="1.1" id="Layer_1" xmlns="http://www.w3.org/2000/svg" xmlns:xlink="http://www.w3.org/1999/xlink" x="0px" y="0px"
	 viewBox="0 0 660.8 164" style="enable-background:new 0 0 660.8 164;" xml:space="preserve">
<path d="M98.6,25.2L98.6,25.2c0-13.8-11.2-24.9-24.9-24.9H-0.4v124.5h74.1c13.8,0,24.9-11.2,24.9-24.9l0,0c0-7.1-3.1-13.9-8.4-18.7
	c5.3-4.7,8.4-11.5,8.4-18.7l0,0c0-7.1-3.1-13.9-8.4-18.6C95.6,39.1,98.6,32.4,98.6,25.2z M15.1,12.8h54.8c6.8-0.2,12.5,5.2,12.7,12
	c0.2,6.8-5.2,12.5-12,12.7c-0.2,0-0.5,0-0.7,0H15.1V12.8z M15.1,50.1h54.8c6.8-0.2,12.5,5.2,12.7,12c0.2,6.8-5.2,12.5-12,12.7
	c-0.2,0-0.5,0-0.7,0H15.1V50.1z M69.9,112.2H15.1V87.5h54.8c6.8,0,12.4,5.5,12.4,12.4C82.3,106.7,76.8,112.2,69.9,112.2z"/>
<path d="M287.2,31.2h15v93.8c0,24.9-12.2,39.3-46.2,39.3c-27.9,0-42.9-12.2-44.5-33.5h14.8c1.1,12.4,9,21.7,29.8,21.7
	c22.1,0,31.3-7.7,31.3-27.7v-20.2c-6.4,12.2-18,18.2-34.8,18.2c-29.4,0-43.2-18.3-43.2-47.2c0-28.6,13.9-47,43.2-47
	c17,0,28.5,6.7,34.8,18.7L287.2,31.2z M287.2,75.5c0-25.3-11.4-35.2-31.3-35.2c-21.3,0-31.4,10-31.4,35.2s10.1,35.4,31.4,35.4
	C275.8,110.9,287.2,101,287.2,75.5z"/>
<path d="M370.5,29.9v14.8h-3.9c-27.7-0.9-33.7,19.3-33.7,45.7v34.4h-15V31.2h15v25.3c5.6-16.5,16.5-26.6,34.3-26.6L370.5,29.9z"/>
<path d="M447.8,95.9h13.7c-1.9,14.2-12.7,31.8-43.8,31.8c-32.2,0-46.4-21.7-46.4-50c0-27.9,15.4-49.6,46.4-49.6
	c28.1,0,44,19.3,44,46.6c0.1,2.2-0.1,4.4-0.4,6.6H386c1.1,25.6,13.5,35,32.2,35C436.6,116.3,445,107.7,447.8,95.9z M386.4,70.1H447
	c-0.7-21.5-11.8-30.5-29.2-30.5C400.1,39.6,388.5,48,386.4,70.1z"/>
<path d="M548.6,95.9h13.7c-1.9,14.2-12.7,31.8-43.8,31.8c-32.2,0-46.4-21.7-46.4-50c0-27.9,15.4-49.6,46.4-49.6
	c28.1,0,44,19.3,44,46.6c0.1,2.2-0.1,4.4-0.4,6.6h-75.2c1.1,25.6,13.5,35,32.2,35C537.4,116.3,545.8,107.7,548.6,95.9z M487.3,70.1
	h60.6c-0.7-21.5-11.8-30.5-29.2-30.5C500.9,39.6,489.3,48,487.3,70.1z"/>
<path d="M660.4,65.1v59.7h-15v-58c0-20-8.8-26-22.5-26c-20.8,0-31.8,16.1-31.8,48.3v35.7h-15V31.2h15v24.7c6-18,17.6-27.7,35.9-27.7
	C650.5,28.2,660.4,40.9,660.4,65.1z"/>
<path d="M115.4,16.5V1h15.3v15.4H115.4z M115.4,124.8v-93h15.3v93L115.4,124.8L115.4,124.8z"/>
<path d="M180.7,124.8c-18.3,0-23.1-6.9-23.1-21.8V43.4h-18.1V31.7h19.8L159.6,1h13.2v30.7h31.5v11.7h-31.5v69.2h30.3v12.1
	L180.7,124.8L180.7,124.8z"/>
</svg>
