<?xml version="1.0" encoding="utf-8"?>
<!-- Generator: Adobe Illustrator 26.3.1, SVG Export Plug-In . SVG Version: 6.00 Build 0)  -->
<svg version="1.1" id="Layer_1" xmlns="http://www.w3.org/2000/svg" xmlns:xlink="http://www.w3.org/1999/xlink" x="0px" y="0px"
	 viewBox="0 0 660.8 164" style="enable-background:new 0 0 660.8 164;" xml:space="preserve">
<style type="text/css">
	.st0{fill:#C0FF00;}
</style>
<path class="st0" d="M99,24.9L99,24.9C99,11.2,87.8,0,74.1,0H0v124.5h74.1c13.8,0,24.9-11.2,24.9-24.9l0,0c0-7.1-3.1-13.9-8.4-18.7
	c5.3-4.7,8.4-11.5,8.4-18.7l0,0c0-7.1-3.1-13.9-8.4-18.6C95.9,38.9,99,32.1,99,24.9z M15.5,12.5h54.8c6.8-0.2,12.5,5.2,12.7,12
	c0.2,6.8-5.2,12.5-12,12.7c-0.2,0-0.5,0-0.7,0H15.5V12.5z M15.5,49.9h54.8c6.8-0.2,12.5,5.2,12.7,12c0.2,6.8-5.2,12.5-12,12.7
	c-0.2,0-0.5,0-0.7,0H15.5V49.9z M70.3,111.9H15.5V87.2h54.8c6.8,0,12.4,5.5,12.4,12.4C82.7,106.4,77.2,111.9,70.3,111.9z"/>
<path class="st0" d="M287.6,30.9h15v93.8c0,24.9-12.2,39.3-46.2,39.3c-27.9,0-42.9-12.2-44.5-33.5h14.8c1.1,12.4,9,21.7,29.8,21.7
	c22.1,0,31.3-7.7,31.3-27.7v-20.2c-6.4,12.2-18,18.2-34.8,18.2c-29.4,0-43.2-18.3-43.2-47.2c0-28.6,13.9-47,43.2-47
	c17,0,28.5,6.7,34.8,18.7L287.6,30.9z M287.6,75.2c0-25.3-11.4-35.2-31.3-35.2c-21.3,0-31.4,10-31.4,35.2s10.1,35.4,31.4,35.4
	C276.2,110.6,287.6,100.7,287.6,75.2z"/>
<path class="st0" d="M370.9,29.6v14.8H367c-27.7-0.9-33.7,19.3-33.7,45.7v34.4h-15V30.9h15v25.3c5.6-16.5,16.5-26.6,34.3-26.6
	L370.9,29.6z"/>
<path class="st0" d="M448.2,95.6h13.7c-1.9,14.2-12.7,31.8-43.8,31.8c-32.2,0-46.4-21.7-46.4-50c0-27.9,15.4-49.6,46.4-49.6
	c28.1,0,44,19.3,44,46.6c0.1,2.2-0.1,4.4-0.4,6.6h-75.3c1.1,25.6,13.5,35,32.2,35C437,116,445.4,107.4,448.2,95.6z M386.8,69.8h60.6
	c-0.7-21.5-11.8-30.5-29.2-30.5C400.5,39.3,388.9,47.7,386.8,69.8z"/>
<path class="st0" d="M549,95.6h13.7c-1.9,14.2-12.7,31.8-43.8,31.8c-32.2,0-46.4-21.7-46.4-50c0-27.9,15.4-49.6,46.4-49.6
	c28.1,0,44,19.3,44,46.6c0.1,2.2-0.1,4.4-0.4,6.6h-75.2c1.1,25.6,13.5,35,32.2,35C537.8,116,546.2,107.4,549,95.6z M487.6,69.8h60.6
	c-0.7-21.5-11.8-30.5-29.2-30.5C501.3,39.3,489.7,47.7,487.6,69.8z"/>
<path class="st0" d="M660.8,64.8v59.7h-15v-58c0-20-8.8-26-22.5-26c-20.8,0-31.8,16.1-31.8,48.3v35.7h-15V30.9h15v24.7
	c6-18,17.6-27.7,35.9-27.7C650.9,27.9,660.8,40.6,660.8,64.8z"/>
<path class="st0" d="M115.8,16.2V0.7h15.3v15.4H115.8z M115.8,124.5v-93h15.3v93L115.8,124.5L115.8,124.5z"/>
<path class="st0" d="M181.1,124.5c-18.3,0-23.1-6.9-23.1-21.8V43.1h-18.1V31.4h19.8L160,0.7h13.2v30.7h31.5v11.7h-31.5v69.2h30.3
	v12.1L181.1,124.5L181.1,124.5z"/>
</svg>
