<svg width="225" height="225" viewBox="0 0 225 225" fill="none" xmlns="http://www.w3.org/2000/svg">
<g clip-path="url(#clip0_39_61)">
<path d="M112.08 224.16C173.98 224.16 224.16 173.98 224.16 112.08C224.16 50.1799 173.98 0 112.08 0C50.1799 0 0 50.1799 0 112.08C0 173.98 50.1799 224.16 112.08 224.16Z" fill="#C0FF00"/>
<path d="M161.59 74.77C161.587 68.1599 158.96 61.8214 154.285 57.1483C149.61 52.4752 143.27 49.85 136.66 49.85H62.58V174.31H136.66C143.27 174.31 149.61 171.685 154.285 167.012C158.96 162.339 161.587 156 161.59 149.39V149.39C161.592 145.861 160.843 142.372 159.393 139.155C157.943 135.938 155.825 133.066 153.18 130.73C155.826 128.397 157.944 125.527 159.394 122.311C160.844 119.095 161.593 115.608 161.59 112.08C161.592 108.553 160.842 105.065 159.392 101.85C157.942 98.6342 155.825 95.7641 153.18 93.43C155.825 91.094 157.943 88.2221 159.393 85.0049C160.843 81.7877 161.592 78.2988 161.59 74.77V74.77ZM78.11 62.39H132.92C136.144 62.4816 139.205 63.8266 141.453 66.1393C143.701 68.4519 144.958 71.5499 144.958 74.775C144.958 78.0001 143.701 81.0981 141.453 83.4107C139.205 85.7234 136.144 87.0684 132.92 87.16H78.11V62.39ZM78.11 99.7H132.92C136.203 99.7 139.352 101.004 141.674 103.326C143.996 105.648 145.3 108.797 145.3 112.08C145.3 115.363 143.996 118.512 141.674 120.834C139.352 123.156 136.203 124.46 132.92 124.46H78.11V99.7ZM132.92 161.77H78.11V137H132.92C136.144 137.092 139.205 138.437 141.453 140.749C143.701 143.062 144.958 146.16 144.958 149.385C144.958 152.61 143.701 155.708 141.453 158.021C139.205 160.333 136.144 161.678 132.92 161.77V161.77Z" fill="#061C00"/>
</g>
<defs>
<clipPath id="clip0_39_61">
<rect width="224.16" height="224.16" fill="white"/>
</clipPath>
</defs>
</svg>
