<svg width="225" height="225" viewBox="0 0 225 225" fill="none" xmlns="http://www.w3.org/2000/svg">
<g clip-path="url(#clip0_39_71)">
<path d="M112.4 224.16C174.3 224.16 224.48 173.98 224.48 112.08C224.48 50.1799 174.3 0 112.4 0C50.5 0 0.320068 50.1799 0.320068 112.08C0.320068 173.98 50.5 224.16 112.4 224.16Z" fill="#181818"/>
<path d="M161.91 74.77C161.907 68.1599 159.28 61.8214 154.605 57.1483C149.93 52.4752 143.59 49.85 136.98 49.85H62.9001V174.31H136.98C143.59 174.31 149.93 171.685 154.605 167.012C159.28 162.339 161.907 156 161.91 149.39V149.39C161.912 145.861 161.163 142.372 159.713 139.155C158.263 135.938 156.145 133.066 153.5 130.73C156.146 128.397 158.264 125.527 159.714 122.311C161.164 119.095 161.913 115.608 161.91 112.08C161.912 108.553 161.163 105.065 159.712 101.85C158.262 98.6342 156.145 95.7641 153.5 93.43C156.145 91.094 158.263 88.2221 159.713 85.0049C161.163 81.7877 161.912 78.2988 161.91 74.77V74.77ZM78.4301 62.39H133.24C136.464 62.4816 139.525 63.8266 141.773 66.1393C144.021 68.4519 145.278 71.5499 145.278 74.775C145.278 78.0001 144.021 81.0981 141.773 83.4107C139.525 85.7234 136.464 87.0684 133.24 87.16H78.4301V62.39ZM78.4301 99.7H133.24C136.523 99.7 139.672 101.004 141.994 103.326C144.316 105.648 145.62 108.797 145.62 112.08C145.62 115.363 144.316 118.512 141.994 120.834C139.672 123.156 136.523 124.46 133.24 124.46H78.4301V99.7ZM133.24 161.77H78.4301V137H133.24C136.464 137.092 139.525 138.437 141.773 140.749C144.021 143.062 145.278 146.16 145.278 149.385C145.278 152.61 144.021 155.708 141.773 158.021C139.525 160.333 136.464 161.678 133.24 161.77V161.77Z" fill="white"/>
</g>
<defs>
<clipPath id="clip0_39_71">
<rect width="224.16" height="224.16" fill="white" transform="translate(0.320068)"/>
</clipPath>
</defs>
</svg>
