<svg width="225" height="225" viewBox="0 0 225 225" fill="none" xmlns="http://www.w3.org/2000/svg">
<g clip-path="url(#clip0_39_66)">
<path d="M112.24 224.16C174.14 224.16 224.32 173.98 224.32 112.08C224.32 50.1799 174.14 0 112.24 0C50.34 0 0.160034 50.1799 0.160034 112.08C0.160034 173.98 50.34 224.16 112.24 224.16Z" fill="#224851"/>
<path d="M161.75 74.77C161.747 68.1599 159.12 61.8214 154.445 57.1483C149.77 52.4752 143.43 49.85 136.82 49.85H62.74V174.31H136.82C143.43 174.31 149.77 171.685 154.445 167.012C159.12 162.339 161.747 156 161.75 149.39V149.39C161.752 145.861 161.003 142.372 159.553 139.155C158.103 135.938 155.985 133.066 153.34 130.73C155.986 128.397 158.104 125.527 159.554 122.311C161.004 119.095 161.753 115.608 161.75 112.08C161.752 108.553 161.002 105.065 159.552 101.85C158.102 98.6342 155.985 95.7641 153.34 93.43C155.985 91.094 158.103 88.2221 159.553 85.0049C161.003 81.7877 161.752 78.2988 161.75 74.77V74.77ZM78.27 62.39H133.08C136.304 62.4816 139.365 63.8266 141.613 66.1393C143.861 68.4519 145.118 71.5499 145.118 74.775C145.118 78.0001 143.861 81.0981 141.613 83.4107C139.365 85.7234 136.304 87.0684 133.08 87.16H78.27V62.39ZM78.27 99.7H133.08C136.363 99.7 139.512 101.004 141.834 103.326C144.156 105.648 145.46 108.797 145.46 112.08C145.46 115.363 144.156 118.512 141.834 120.834C139.512 123.156 136.363 124.46 133.08 124.46H78.27V99.7ZM133.08 161.77H78.27V137H133.08C136.304 137.092 139.365 138.437 141.613 140.749C143.861 143.062 145.118 146.16 145.118 149.385C145.118 152.61 143.861 155.708 141.613 158.021C139.365 160.333 136.304 161.678 133.08 161.77V161.77Z" fill="#C0FF00"/>
</g>
<defs>
<clipPath id="clip0_39_66">
<rect width="224.16" height="224.16" fill="white" transform="translate(0.160034)"/>
</clipPath>
</defs>
</svg>
