<svg width="100" height="125" viewBox="0 0 100 125" fill="none" xmlns="http://www.w3.org/2000/svg">
<path d="M99.59 24.92C99.5874 18.3099 96.9596 11.9714 92.2847 7.29829C87.6097 2.62517 81.2701 -5.31783e-07 74.66 0H0.580017V124.46H74.66C81.2701 124.46 87.6097 121.835 92.2847 117.162C96.9596 112.489 99.5874 106.15 99.59 99.54V99.54C99.5917 96.0112 98.8427 92.5223 97.3927 89.3051C95.9427 86.0879 93.825 83.216 91.18 80.88C93.8257 78.5467 95.9441 75.6768 97.3942 72.461C98.8443 69.2453 99.5928 65.7576 99.59 62.23C99.5916 58.7026 98.8424 55.2153 97.3924 51.9998C95.9424 48.7842 93.8247 45.9141 91.18 43.58C93.825 41.244 95.9427 38.372 97.3927 35.1549C98.8427 31.9377 99.5917 28.4488 99.59 24.92V24.92ZM16.11 12.54H70.92C74.1438 12.6316 77.2048 13.9766 79.4527 16.2893C81.7005 18.6019 82.9581 21.6999 82.9581 24.925C82.9581 28.1501 81.7005 31.2481 79.4527 33.5607C77.2048 35.8734 74.1438 37.2184 70.92 37.31H16.11V12.54ZM16.11 49.85H70.92C74.2034 49.85 77.3523 51.1543 79.674 53.476C81.9957 55.7977 83.3 58.9466 83.3 62.23C83.3 65.5134 81.9957 68.6623 79.674 70.984C77.3523 73.3057 74.2034 74.61 70.92 74.61H16.11V49.85ZM70.92 111.92H16.11V87.15H70.92C74.1438 87.2416 77.2048 88.5866 79.4527 90.8993C81.7005 93.2119 82.9581 96.3099 82.9581 99.535C82.9581 102.76 81.7005 105.858 79.4527 108.171C77.2048 110.483 74.1438 111.828 70.92 111.92V111.92Z" fill="#224851"/>
</svg>
