<svg width="100" height="125" viewBox="0 0 100 125" fill="none" xmlns="http://www.w3.org/2000/svg">
<path d="M99.75 24.92C99.7474 18.3099 97.1197 11.9714 92.4447 7.29829C87.7697 2.62517 81.4302 -5.31783e-07 74.82 0H0.740036V124.46H74.82C81.4302 124.46 87.7697 121.835 92.4447 117.162C97.1197 112.489 99.7474 106.15 99.75 99.54V99.54C99.7517 96.0112 99.0027 92.5223 97.5527 89.3051C96.1027 86.0879 93.985 83.216 91.34 80.88C93.9857 78.5467 96.1041 75.6768 97.5542 72.461C99.0043 69.2453 99.7529 65.7576 99.75 62.23C99.7516 58.7026 99.0025 55.2153 97.5524 51.9998C96.1024 48.7842 93.9847 45.9141 91.34 43.58C93.985 41.244 96.1027 38.372 97.5527 35.1549C99.0027 31.9377 99.7517 28.4488 99.75 24.92V24.92ZM16.27 12.54H71.08C74.3038 12.6316 77.3648 13.9766 79.6127 16.2893C81.8605 18.6019 83.1181 21.6999 83.1181 24.925C83.1181 28.1501 81.8605 31.2481 79.6127 33.5607C77.3648 35.8734 74.3038 37.2184 71.08 37.31H16.27V12.54ZM16.27 49.85H71.08C74.3634 49.85 77.5123 51.1543 79.834 53.476C82.1557 55.7977 83.46 58.9466 83.46 62.23C83.46 65.5134 82.1557 68.6623 79.834 70.984C77.5123 73.3057 74.3634 74.61 71.08 74.61H16.27V49.85ZM71.08 111.92H16.27V87.15H71.08C74.3038 87.2416 77.3648 88.5866 79.6127 90.8993C81.8605 93.2119 83.1181 96.3099 83.1181 99.535C83.1181 102.76 81.8605 105.858 79.6127 108.171C77.3648 110.483 74.3038 111.828 71.08 111.92V111.92Z" fill="#C0FF00"/>
</svg>
