<svg width="100" height="125" viewBox="0 0 100 125" fill="none" xmlns="http://www.w3.org/2000/svg">
<path d="M99.9101 24.92C99.9074 18.3099 97.2797 11.9714 92.6047 7.29829C87.9297 2.62517 81.5902 -5.31783e-07 74.9801 0H0.900085V124.46H74.9801C81.5902 124.46 87.9297 121.835 92.6047 117.162C97.2797 112.489 99.9074 106.15 99.9101 99.54V99.54C99.9118 96.0112 99.1627 92.5223 97.7128 89.3051C96.2628 86.0879 94.145 83.216 91.5001 80.88C94.1458 78.5467 96.2642 75.6768 97.7143 72.461C99.1644 69.2453 99.9129 65.7576 99.9101 62.23C99.9116 58.7026 99.1625 55.2153 97.7125 51.9998C96.2625 48.7842 94.1448 45.9141 91.5001 43.58C94.145 41.244 96.2628 38.372 97.7128 35.1549C99.1627 31.9377 99.9118 28.4488 99.9101 24.92V24.92ZM16.4301 12.54H71.2401C74.4639 12.6316 77.5249 13.9766 79.7727 16.2893C82.0206 18.6019 83.2781 21.6999 83.2781 24.925C83.2781 28.1501 82.0206 31.2481 79.7727 33.5607C77.5249 35.8734 74.4639 37.2184 71.2401 37.31H16.4301V12.54ZM16.4301 49.85H71.2401C74.5235 49.85 77.6724 51.1543 79.9941 53.476C82.3158 55.7977 83.6201 58.9466 83.6201 62.23C83.6201 65.5134 82.3158 68.6623 79.9941 70.984C77.6724 73.3057 74.5235 74.61 71.2401 74.61H16.4301V49.85ZM71.2401 111.92H16.4301V87.15H71.2401C74.4639 87.2416 77.5249 88.5866 79.7727 90.8993C82.0206 93.2119 83.2781 96.3099 83.2781 99.535C83.2781 102.76 82.0206 105.858 79.7727 108.171C77.5249 110.483 74.4639 111.828 71.2401 111.92V111.92Z" fill="white"/>
</svg>
